<svg version="1.1" id="Layer_1" xmlns="http://www.w3.org/2000/svg" xmlns:xlink="http://www.w3.org/1999/xlink" x="0px" y="0px"
	 width="100%" viewBox="0 0 576 784" enable-background="new 0 0 576 784" xml:space="preserve">
<path fill="#000000" opacity="1.000000" stroke="none" 
	d="
M206.992905,334.043884 
	C207.550705,336.286987 206.115845,337.402283 205.149719,338.702148 
	C198.691299,347.391785 192.019119,355.930786 185.817307,364.799133 
	C183.114899,368.663452 180.007828,370.139038 175.390228,370.118774 
	C148.231018,369.999542 121.070755,370.054138 93.911255,370.157318 
	C90.659508,370.169708 85.767982,368.898895 85.603035,373.934387 
	C85.432205,379.149292 90.445999,378.572693 93.916306,378.595734 
	C117.242546,378.750671 140.587051,378.202972 163.891327,378.951294 
	C181.593887,379.519714 196.926773,386.654144 206.470795,402.127380 
	C220.958115,425.614960 208.815628,455.784821 181.741776,465.366364 
	C172.858612,468.510162 163.640533,469.944397 154.274734,469.972260 
	C117.617577,470.081299 80.959930,470.031006 44.302486,470.007507 
	C42.377220,470.006287 39.917397,470.684448 38.894905,468.489685 
	C37.987213,466.541382 39.984142,465.177429 41.032043,463.758575 
	C47.266357,455.317474 53.802174,447.085175 59.716408,438.427338 
	C62.718666,434.032288 66.167351,432.600464 71.356194,432.635742 
	C98.681175,432.821686 126.008469,432.666840 153.334961,432.630219 
	C157.853622,432.624176 162.330139,432.275909 166.592194,430.634186 
	C169.890533,429.363708 172.634018,427.401581 172.457047,423.442902 
	C172.288681,419.677155 169.429794,418.106110 166.256927,417.135376 
	C161.924393,415.809967 157.449844,415.415833 152.938141,415.411926 
	C131.288315,415.393311 109.638496,415.375977 87.988678,415.373474 
	C78.121162,415.372345 68.872894,412.881805 60.176636,408.340118 
	C46.335159,401.111389 38.481079,390.058044 38.498741,374.024628 
	C38.516300,358.085175 46.905754,347.520569 60.202736,340.126190 
	C69.309624,335.061890 79.289886,333.053741 89.533600,332.995697 
	C127.023201,332.783203 164.514374,332.844940 202.004959,332.820465 
	C203.643829,332.819397 205.368790,332.542786 206.992905,334.043884 
z"/>
<path fill="#000000" opacity="1.000000" stroke="none" 
	d="
M401.197235,159.675751 
	C450.438904,180.181213 489.564148,212.556244 519.389404,256.166290 
	C527.192505,267.575867 534.703430,279.276581 539.716553,292.964783 
	C535.678955,293.224304 535.349243,290.608032 534.446838,288.951447 
	C523.298096,268.485870 509.978973,249.647568 493.036407,233.526825 
	C454.805176,197.149979 409.828247,174.396286 357.247223,168.218765 
	C280.862396,159.244629 216.113861,183.511734 163.107635,238.889771 
	C143.796066,259.065460 129.299637,282.595367 119.471085,308.812683 
	C117.644745,313.684357 114.998573,315.401093 109.862900,315.276764 
	C96.540665,314.954193 83.205559,315.197998 69.876175,315.118713 
	C64.953896,315.089417 64.176796,313.857330 65.794792,309.383026 
	C83.261436,261.082306 112.116127,221.129669 153.480453,190.511429 
	C191.136307,162.638260 233.250885,146.155228 280.009094,141.662918 
	C321.789459,137.648834 361.978394,144.006851 401.197235,159.675751 
z"/>
<path fill="#000000" opacity="1.000000" stroke="none" 
	d="
M286.889709,438.889435 
	C289.505188,433.527985 293.559479,432.376190 298.950470,432.560059 
	C310.097260,432.940308 321.267090,432.689758 332.426880,432.615295 
	C335.394348,432.595490 338.395477,432.471924 342.336975,430.660339 
	C332.721283,415.993713 323.258698,401.603210 312.578278,386.993835 
	C308.256714,393.122742 304.397308,398.478760 300.659363,403.918304 
	C286.702942,424.227997 272.719971,444.520142 258.917358,464.934082 
	C256.498077,468.512268 253.654541,470.037628 249.403595,469.997009 
	C236.412430,469.872894 223.419022,469.991241 210.426498,469.986267 
	C208.620377,469.985565 206.414474,470.335358 205.453506,468.460144 
	C204.444077,466.490295 206.380402,465.108765 207.372147,463.661255 
	C232.124985,427.534027 256.902832,391.423950 281.674469,355.309631 
	C284.596191,351.050079 287.582062,346.854095 291.191620,343.118561 
	C304.868561,328.964203 325.493134,329.608734 337.269867,345.440765 
	C347.595764,359.322357 356.931427,373.946899 366.556183,388.342377 
	C383.028992,412.980194 399.391785,437.691559 415.780121,462.385742 
	C417.041473,464.286377 418.715363,466.023529 418.860229,468.375244 
	C417.304626,470.571686 415.154236,470.041473 413.240509,470.041626 
	C366.933685,470.045502 320.626862,470.020874 274.320068,469.973083 
	C272.205902,469.970917 269.497742,470.581116 268.369415,468.410492 
	C267.194885,466.150940 269.591766,464.494354 270.740356,462.770721 
	C276.001892,454.874939 281.355103,447.040283 286.889709,438.889435 
z"/>
<path fill="#000000" opacity="1.000000" stroke="none" 
	d="
M228.180145,616.745972 
	C310.814270,634.309998 382.266602,613.848694 442.741852,555.568359 
	C461.779114,537.222046 476.306549,515.540955 486.913116,491.300507 
	C488.153503,488.465759 489.962524,487.112793 492.978027,487.108948 
	C507.476440,487.090424 521.975281,486.971985 536.473022,487.058472 
	C541.183167,487.086578 541.823792,488.331696 539.921448,493.111115 
	C525.999695,528.088501 504.840424,558.010498 477.018127,583.318359 
	C444.240692,613.133606 406.070984,632.737732 363.091125,642.798218 
	C329.435791,650.676025 295.553925,651.141052 261.460052,644.658386 
	C216.756836,636.158386 176.816315,617.773376 142.259995,588.243103 
	C114.575829,564.585571 92.541290,536.337463 76.706825,503.416077 
	C75.960548,501.864532 74.541405,500.286560 76.244209,498.175964 
	C79.144569,498.127350 79.767014,500.664246 80.766113,502.572266 
	C95.269608,530.270813 114.681084,553.919495 139.130630,573.413086 
	C165.463791,594.408569 195.027145,608.800537 228.180145,616.745972 
z"/>
<path fill="#000000" opacity="1.000000" stroke="none" 
	d="
M551.986877,432.679047 
	C556.981262,432.638763 561.478760,432.592499 565.976196,432.546082 
	C569.468018,432.510071 570.320618,434.042358 568.281433,436.831024 
	C560.810059,447.048340 553.247498,457.198944 545.745300,467.393860 
	C544.165527,469.540619 541.919128,469.924469 539.531555,469.893646 
	C516.217468,469.592957 492.816315,471.480804 469.605377,469.062744 
	C439.689697,465.946198 415.704895,452.492004 405.113159,422.917206 
	C390.328827,381.635437 415.125305,341.741638 460.227905,334.802612 
	C484.076660,331.133484 508.132996,333.576141 532.088135,332.969116 
	C542.911621,332.694855 553.746460,332.853485 564.576111,332.856842 
	C566.191162,332.857330 568.153076,332.361053 569.168701,334.041901 
	C570.458435,336.176392 568.305481,337.341736 567.314636,338.716309 
	C560.984436,347.498047 554.439758,356.129333 548.279602,365.027527 
	C545.716736,368.729462 542.720032,370.154419 538.261841,370.122833 
	C517.436707,369.975067 496.604919,369.828430 475.785156,370.208801 
	C463.252502,370.437775 452.597382,375.234314 446.335724,386.751129 
	C436.745178,404.390686 446.183960,425.559174 465.699310,430.674957 
	C470.700226,431.985901 475.806946,432.689667 481.013702,432.681793 
	C504.505737,432.646332 527.997864,432.670410 551.986877,432.679047 
z"/>
<path fill="#000000" opacity="1.000000" stroke="none" 
	d="
M325.554749,584.590088 
	C349.057281,580.931885 371.092468,574.138916 391.491791,562.659668 
	C421.600250,545.716797 445.792328,522.622437 463.236603,492.652557 
	C464.070984,491.218994 464.840973,489.638855 466.025574,488.542511 
	C468.065063,486.654907 470.741455,486.440369 472.959564,487.956146 
	C475.360504,489.596863 473.408691,491.595154 472.523804,493.198029 
	C438.890625,554.120178 388.740356,593.341125 319.736115,605.212585 
	C243.839554,618.269836 178.532013,595.910767 124.580597,541.025024 
	C110.610893,526.813416 99.687408,510.230225 90.401314,492.576996 
	C88.408051,488.787720 89.470207,487.211792 93.334724,487.179596 
	C107.165123,487.064331 120.996681,487.089905 134.827789,487.057404 
	C137.413559,487.051331 139.120331,488.214996 140.399551,490.519562 
	C162.706284,530.707031 196.272812,557.860901 238.664719,574.407593 
	C266.504944,585.274414 295.458160,588.323975 325.554749,584.590088 
z"/>
<path fill="#000000" opacity="1.000000" stroke="none" 
	d="
M278.522858,197.271805 
	C355.620361,191.732544 416.455383,219.931412 461.036011,282.719666 
	C466.548920,290.484131 471.296722,298.712097 475.154205,307.405487 
	C476.131866,309.608795 479.255829,312.389130 475.512573,314.715210 
	C472.434998,316.627655 466.586395,314.940765 464.958527,311.834961 
	C460.218140,302.790680 454.512421,294.384491 448.125610,286.467590 
	C418.014771,249.143204 379.627533,225.597702 332.016022,218.278702 
	C280.674103,210.386276 233.710388,221.556961 191.872604,252.665985 
	C170.861298,268.289215 154.202408,287.833771 141.519470,310.752319 
	C140.956924,311.768799 140.495636,312.907318 139.709961,313.721497 
	C137.704788,315.799408 135.095566,315.644897 132.732529,314.740356 
	C130.274536,313.799500 131.240646,311.768799 131.974899,310.076935 
	C146.863220,275.770813 167.932068,245.985367 199.055756,224.804276 
	C222.666748,208.735901 249.601456,200.382065 278.522858,197.271805 
z"/>
<path fill="#000000" opacity="1.000000" stroke="none" 
	d="
M341.510284,180.309143 
	C382.133850,183.488373 419.191071,195.747467 452.647797,218.329987 
	C486.198029,240.975601 511.148376,270.935699 527.829407,307.790894 
	C530.823975,314.407043 530.283875,315.171539 523.065430,315.167694 
	C514.571350,315.163177 506.075378,315.014404 497.584076,315.157684 
	C493.930969,315.219299 491.822327,313.910675 490.349304,310.464447 
	C472.581329,268.894714 444.384430,236.322937 405.689514,212.896988 
	C380.236664,197.487778 352.776398,188.002609 323.106201,185.125153 
	C318.969574,184.723984 314.817841,184.480560 310.675812,184.132080 
	C309.219330,184.009552 307.617126,184.117096 306.545319,181.556107 
	C318.138977,179.224289 329.586304,179.572159 341.510284,180.309143 
z"/>
</svg>